
<svg width="452px" height="70px" viewBox="0 0 452 70" version="1.1" xmlns="http://www.w3.org/2000/svg" xmlns:xlink="http://www.w3.org/1999/xlink">
    <defs>
        <path d="M51.238,37.627 L51.238,19.33 C51.238,15.89 49.404,12.714 46.426,10.994 L30.58,1.846 C27.602,0.126 23.933,0.126 20.955,1.846 L5.109,10.994 C2.131,12.714 0.297,15.89 0.297,19.33 L0.297,37.627 C0.297,41.065 2.131,44.243 5.109,45.963 L20.955,55.111 C23.933,56.83 27.602,56.83 30.58,55.111 L46.426,45.963 C49.404,44.243 51.238,41.065 51.238,37.627" id="path-1"></path>
    </defs>
    <g id="Symbols" stroke="none" stroke-width="1" fill="none" fill-rule="evenodd">
        <g id="Brand-assets/Logo">
            <g id="Logo">
                <path d="M381.401,10.516 L379.138,10.516 C378.915,10.516 378.725,10.339 378.725,10.116 C378.725,9.892 378.915,9.704 379.138,9.704 L384.556,9.704 C384.779,9.704 384.969,9.892 384.969,10.116 C384.969,10.339 384.779,10.516 384.556,10.516 L382.293,10.516 L382.293,17.118 C382.293,17.362 382.092,17.563 381.847,17.563 C381.602,17.563 381.401,17.362 381.401,17.118 L381.401,10.516" id="Fill-1" fill="#0A1E28"></path>
                <path d="M386.565,10.104 C386.565,9.87 386.765,9.67 387,9.67 L387.1,9.67 C387.289,9.67 387.423,9.77 387.512,9.904 L390.299,14.096 L393.087,9.904 C393.176,9.759 393.321,9.67 393.5,9.67 L393.6,9.67 C393.834,9.67 394.035,9.87 394.035,10.104 L394.035,17.118 C394.035,17.362 393.834,17.563 393.6,17.563 C393.354,17.563 393.154,17.351 393.154,17.118 L393.154,11.298 L390.656,14.966 C390.556,15.11 390.444,15.188 390.288,15.188 C390.132,15.188 390.009,15.11 389.909,14.966 L387.423,11.309 L387.423,17.129 C387.423,17.374 387.234,17.563 386.988,17.563 C386.754,17.563 386.565,17.374 386.565,17.129 L386.565,10.104" id="Fill-2" fill="#0A1E28"></path>
                <path d="M38.966,32.208 C38.209,23.312 33.099,15.553 23.352,15.553 C14.835,15.553 8.4,22.649 7.453,32.208 L38.966,32.208 Z M24.488,60.503 C11.049,60.503 0.072,50.188 0.072,35.047 L0.072,34.857 C0.072,20.757 10.008,9.401 23.541,9.401 C38.02,9.401 46.253,21.23 46.253,34.194 C46.253,36.183 44.644,37.601 42.846,37.601 L7.453,37.601 C8.494,48.2 15.97,54.162 24.676,54.162 C30.733,54.162 35.181,51.798 38.776,48.484 C39.345,48.011 40.007,47.633 40.859,47.633 C42.657,47.633 44.076,49.053 44.076,50.756 C44.076,51.607 43.697,52.459 42.941,53.122 C38.303,57.569 32.815,60.503 24.488,60.503 Z" id="Fill-3" fill="#F8C637"></path>
                <path d="M69.773,62.182 L69.374,62.182 C67.279,62.182 65.882,60.886 64.985,58.889 L45.633,15.201 C45.434,14.502 45.134,13.804 45.134,13.105 C45.134,11.11 46.83,9.314 49.025,9.314 C51.219,9.314 52.317,10.611 52.915,12.307 L69.573,52.606 L86.531,12.109 C87.029,10.611 88.127,9.314 90.122,9.314 C92.216,9.314 93.912,11.01 93.912,13.105 C93.912,13.804 93.713,14.502 93.513,15.001 L74.062,58.889 C73.164,60.886 71.867,62.182 69.773,62.182" id="Fill-4" fill="#F8C637"></path>
                <path d="M131.464,32.208 C130.707,23.312 125.597,15.553 115.85,15.553 C107.332,15.553 100.898,22.649 99.951,32.208 L131.464,32.208 Z M116.985,60.503 C103.547,60.503 92.57,50.188 92.57,35.047 L92.57,34.857 C92.57,20.757 102.506,9.401 116.039,9.401 C130.518,9.401 138.751,21.23 138.751,34.194 C138.751,36.183 137.142,37.601 135.344,37.601 L99.951,37.601 C100.992,48.2 108.468,54.162 117.174,54.162 C123.231,54.162 127.679,51.798 131.275,48.484 C131.843,48.011 132.505,47.633 133.357,47.633 C135.155,47.633 136.574,49.053 136.574,50.756 C136.574,51.607 136.195,52.459 135.439,53.122 C130.801,57.569 125.313,60.503 116.985,60.503 Z" id="Fill-5" fill="#F8C637"></path>
                <path d="M143.799,13.66 C143.799,11.672 145.408,9.969 147.395,9.969 C149.477,9.969 151.086,11.577 151.086,13.66 L151.086,18.959 C154.304,13.66 159.414,9.401 167.836,9.401 C179.665,9.401 186.573,17.35 186.573,28.99 L186.573,56.15 C186.573,58.231 184.965,59.841 182.977,59.841 C180.896,59.841 179.287,58.231 179.287,56.15 L179.287,30.789 C179.287,21.704 174.366,16.024 165.755,16.024 C157.332,16.024 151.086,22.176 151.086,31.355 L151.086,56.15 C151.086,58.231 149.572,59.841 147.49,59.841 C145.408,59.841 143.799,58.231 143.799,56.15 L143.799,13.66" id="Fill-6" fill="#F8C637"></path>
                <path d="M225.67,13.665 C225.67,11.239 227.596,9.314 230.092,9.314 C232.517,9.314 234.443,11.239 234.443,13.665 L234.443,30.426 L258.265,30.426 L258.265,13.665 C258.265,11.239 260.19,9.314 262.615,9.314 C265.111,9.314 267.037,11.239 267.037,13.665 L267.037,55.601 C267.037,58.028 265.111,59.953 262.615,59.953 C260.19,59.953 258.265,58.028 258.265,55.601 L258.265,38.556 L234.443,38.556 L234.443,55.601 C234.443,58.028 232.517,59.953 230.092,59.953 C227.596,59.953 225.67,58.028 225.67,55.601 L225.67,13.665" id="Fill-7" fill="#0A1E28"></path>
                <path d="M273.854,13.665 C273.854,11.239 275.779,9.314 278.276,9.314 C280.701,9.314 282.627,11.239 282.627,13.665 L282.627,55.601 C282.627,58.028 280.701,59.953 278.276,59.953 C275.779,59.953 273.854,58.028 273.854,55.601 L273.854,13.665" id="Fill-8" fill="#0A1E28"></path>
                <path d="M305.447,56.745 L287.973,15.662 C287.688,15.019 287.474,14.378 287.474,13.594 C287.474,11.239 289.4,9.314 291.896,9.314 C294.178,9.314 295.676,10.597 296.389,12.453 L310.797,48.471 L325.418,12.167 C325.988,10.669 327.558,9.314 329.626,9.314 C332.051,9.314 333.977,11.168 333.977,13.521 C333.977,14.164 333.763,14.877 333.549,15.377 L316.003,56.745 C315.076,58.954 313.436,60.309 310.94,60.309 L310.44,60.309 C308.015,60.309 306.375,58.954 305.447,56.745" id="Fill-9" fill="#0A1E28"></path>
                <path d="M338.965,55.176 L338.965,14.094 C338.965,11.596 340.891,9.67 343.387,9.67 L372.416,9.67 C374.555,9.67 376.339,11.454 376.339,13.594 C376.339,15.805 374.555,17.516 372.416,17.516 L347.738,17.516 L347.738,30.497 L369.206,30.497 C371.346,30.497 373.129,32.28 373.129,34.49 C373.129,36.631 371.346,38.343 369.206,38.343 L347.738,38.343 L347.738,51.752 L372.772,51.752 C374.912,51.752 376.695,53.535 376.695,55.674 C376.695,57.886 374.912,59.598 372.772,59.598 L343.387,59.598 C340.891,59.598 338.965,57.671 338.965,55.176" id="Fill-10" fill="#0A1E28"></path>
                <path d="M193.52,45.703 L193.52,13.122 C193.52,11.071 195.081,9.314 197.228,9.314 C199.278,9.314 201.035,11.071 201.035,13.122 L201.035,16.648 L211.492,16.648 C213.346,16.648 214.908,18.21 214.908,19.967 C214.908,21.821 213.346,23.285 211.492,23.285 L201.035,23.285 L201.035,44.728 C201.035,50.877 204.451,53.122 209.526,53.122 C212.161,53.122 213.528,52.438 214.113,52.438 C215.87,52.438 217.334,53.902 217.334,55.659 C217.334,57.025 216.456,58.098 215.187,58.587 C213.04,59.466 210.697,59.953 207.769,59.953 C199.668,59.953 193.52,55.953 193.52,45.703" id="Fill-11" fill="#F8C637"></path>
                <path d="M451.238,37.627 L451.238,19.33 C451.238,15.89 449.404,12.714 446.426,10.994 L430.58,1.846 C427.602,0.126 423.933,0.126 420.955,1.846 L405.109,10.994 C402.131,12.714 400.297,15.89 400.297,19.33 L400.297,37.627 C400.297,41.065 402.131,44.243 405.109,45.963 L420.955,55.111 C423.933,56.83 427.602,56.83 430.58,55.111 L446.426,45.963 C449.404,44.243 451.238,41.065 451.238,37.627" id="Fill-12" fill="#F3DF3D"></path>
                <path d="M446.426,10.994 L430.58,1.846 C429.091,0.986 427.429,0.565 425.768,0.565 L425.768,56.39 C427.429,56.39 429.091,55.971 430.58,55.111 L446.426,45.963 C449.404,44.243 451.238,41.065 451.238,37.627 L451.238,19.33 C451.238,15.89 449.404,12.713 446.426,10.994" id="Fill-13" fill="#F8C637"></path>
                <g id="Group-21" transform="translate(400.000000, 0.000000)">
                    <mask id="mask-2" fill="white">
                        <use xlink:href="#path-1"></use>
                    </mask>
                    <g id="Clip-15"></g>
                    <path d="M47.547,19.052 L29.528,8.648 C28.528,8.071 27.217,7.753 25.836,7.753 C24.455,7.753 23.144,8.071 22.144,8.648 L4.125,19.052 C2.055,20.247 0.433,23.056 0.433,25.446 L0.433,32.277 C0.433,29.887 2.055,27.078 4.125,25.883 L22.144,15.479 C23.144,14.902 24.455,14.584 25.836,14.584 C27.217,14.584 28.528,14.902 29.528,15.479 L47.547,25.883 C49.617,27.078 51.238,29.887 51.238,32.277 L51.238,25.446 C51.238,23.056 49.617,20.247 47.547,19.052" id="Fill-14" fill="#5D7377" mask="url(#mask-2)"></path>
                    <path d="M47.547,33.011 L29.528,22.607 C28.528,22.03 27.217,21.712 25.836,21.712 C24.455,21.712 23.144,22.03 22.144,22.607 L4.125,33.011 C2.055,34.206 0.433,37.014 0.433,39.405 L0.433,46.235 C0.433,43.846 2.055,41.037 4.125,39.842 L22.144,29.438 C23.144,28.861 24.455,28.543 25.836,28.543 C27.217,28.543 28.528,28.861 29.528,29.438 L47.547,39.842 C49.617,41.037 51.238,43.846 51.238,46.235 L51.238,39.405 C51.238,37.014 49.617,34.206 47.547,33.011" id="Fill-16" fill="#5D7377" mask="url(#mask-2)"></path>
                    <path d="M47.547,46.97 L29.528,36.566 C28.528,35.989 27.217,35.671 25.836,35.671 C24.455,35.671 23.144,35.989 22.144,36.566 L4.125,46.97 C2.055,48.165 0.433,50.973 0.433,53.363 L0.433,60.194 C0.433,57.805 2.055,54.995 4.125,53.801 L22.144,43.397 C23.144,42.82 24.455,42.502 25.836,42.502 C27.217,42.502 28.528,42.82 29.528,43.397 L47.547,53.801 C49.617,54.995 51.238,57.805 51.238,60.194 L51.238,53.363 C51.238,50.973 49.617,48.165 47.547,46.97" id="Fill-17" fill="#5D7377" mask="url(#mask-2)"></path>
                    <path d="M47.537,19.012 L29.469,8.58 C28.467,8.002 27.152,7.683 25.768,7.683 L25.768,14.532 C27.152,14.532 28.467,14.851 29.469,15.43 L47.537,25.861 C49.612,27.059 51.238,29.876 51.238,32.272 L51.238,25.423 C51.238,23.026 49.612,20.21 47.537,19.012" id="Fill-18" fill="#0A1E28" mask="url(#mask-2)"></path>
                    <path d="M47.537,33.008 L29.469,22.577 C28.467,21.998 27.152,21.679 25.768,21.679 L25.768,28.528 C27.152,28.528 28.467,28.847 29.469,29.426 L47.537,39.857 C49.612,41.055 51.238,43.872 51.238,46.268 L51.238,39.419 C51.238,37.022 49.612,34.206 47.537,33.008" id="Fill-19" fill="#0A1E28" mask="url(#mask-2)"></path>
                    <path d="M47.537,47.004 L29.469,36.573 C28.467,35.994 27.152,35.676 25.768,35.676 L25.768,42.524 C27.152,42.524 28.467,42.844 29.469,43.423 L47.537,53.853 C49.612,55.052 51.238,57.868 51.238,60.264 L51.238,53.416 C51.238,51.019 49.612,48.202 47.537,47.004" id="Fill-20" fill="#0A1E28" mask="url(#mask-2)"></path>
                </g>
                <path d="M425.797,52.404 C422.56,52.404 419.545,54.261 419.545,54.261 L425.797,69.872 L432.059,54.257 C432.059,54.257 429.033,52.404 425.797,52.404" id="Fill-22" fill="#5D7377"></path>
                <path d="M419.545,54.261 L425.797,69.872 L425.797,52.404 C422.613,52.404 419.545,54.261 419.545,54.261" id="Fill-23" fill="#0A1E28"></path>
            </g>
        </g>
    </g>
</svg>